<svg width="17" height="17" fill="none" xmlns="http://www.w3.org/2000/svg"><circle cx="8.5" cy="8.5" r="8.5" fill="#5A5A5A"/><path d="M7 3H5.5v1.5H7V3zM8.5 3H7v1.5h1.5V3zM10 3H8.5v1.5H10V3zM11.5 3H10v1.5h1.5V3zM5.5 4.5H4V6h1.5V4.5zM7 4.5H5.5V6H7V4.5zM8.5 4.5H7V6h1.5V4.5zM10 4.5H8.5V6H10V4.5zM11.5 4.5H10V6h1.5V4.5zM13 4.5h-1.5V6H13V4.5zM5.5 6H4v1.5h1.5V6zM7 6H5.5v1.5H7V6zM11.5 6H10v1.5h1.5V6zM13 6h-1.5v1.5H13V6zM5.5 7.5H4V9h1.5V7.5zM7 7.5H5.5V9H7V7.5zM5.5 9H4v1.5h1.5V9zM7 9H5.5v1.5H7V9zM11.5 9H10v1.5h1.5V9zM13 9h-1.5v1.5H13V9zM5.5 10.5H4V12h1.5v-1.5zM7 10.5H5.5V12H7v-1.5zM8.5 10.5H7V12h1.5v-1.5zM10 10.5H8.5V12H10v-1.5zM11.5 10.5H10V12h1.5v-1.5zM13 10.5h-1.5V12H13v-1.5zM7 12H5.5v1.5H7V12zM8.5 12H7v1.5h1.5V12zM10 12H8.5v1.5H10V12zM11.5 12H10v1.5h1.5V12z" fill="#FCD21D"/></svg>