<svg fill="none" xmlns="http://www.w3.org/2000/svg" viewbox="0 0 31 31"><mask id="a" fill="#fff"><path d="M6.363 19.689c-.617-.604-1.202-1.145-1.749-1.723a2.351 2.351 0 011.145-3.91c.836-.201 1.578.012 2.201.597.176.163.32.358.497.553a36 36 0 01.251-.276c4.089-4.772 8.19-9.544 12.258-14.328.416-.49.843-.648 1.466-.591 2.12.195 4.239.34 6.359.503.125.012.251.019.377.038.421.056.686.327.717.741l.51 6.64c.006.113.006.232.03.345.083.415-.075.717-.39.987-2.61 2.232-5.22 4.476-7.823 6.714-2.264 1.943-4.529 3.892-6.799 5.835a1.48 1.48 0 00-.113.107c.201.213.415.408.604.628.641.774.786 1.641.358 2.546-.428.912-1.189 1.358-2.189 1.358-.648 0-1.195-.27-1.654-.729-.528-.534-1.063-1.069-1.616-1.622-.095.088-.176.163-.258.245-1.906 1.905-3.805 3.81-5.71 5.715-.523.522-.894.522-1.422-.006A701.974 701.974 0 01.35 26.994c-.466-.465-.466-.868-.006-1.327 1.899-1.905 3.805-3.81 5.71-5.714.082-.082.176-.151.309-.264zm7.717.993c.056.05.138.057.2.006 4.819-4.118 9.643-8.235 14.454-12.36.088-.075.138-.251.132-.37-.126-1.817-.27-3.634-.409-5.451-.031-.465-.025-.453-.51-.49-1.785-.133-3.572-.265-5.358-.415-.232-.02-.377.031-.534.213A9269.427 9269.427 0 0111.84 13.76c-.673.786-1.34 1.566-1.994 2.333a.266.266 0 00.019.37l1.585 1.547c.05-.069.113-.182.2-.27 1.875-1.874 3.75-3.753 5.624-5.627.075-.075.144-.15.226-.22a.797.797 0 011.013.031.766.766 0 01.113 1.025c-.063.095-.151.17-.233.252-1.887 1.892-3.78 3.778-5.673 5.664-.082.082-.182.138-.296.226.58.572 1.114 1.075 1.655 1.591zm-6.837.346c-1.68 1.678-3.365 3.363-5.019 5.01a.36.36 0 000 .516l1.61 1.628a.346.346 0 00.484.007c1.692-1.654 3.403-3.314 5.089-4.96a.292.292 0 000-.422 237.613 237.613 0 01-1.78-1.78.27.27 0 00-.384 0zm-.799-5.533c-.465.026-.723.176-.842.49-.145.36-.032.66.238.938 2.497 2.508 4.994 5.016 7.485 7.531.044.044.088.094.132.132.396.34.906.34 1.214 0 .308-.333.264-.792-.113-1.17-2.541-2.54-5.076-5.079-7.623-7.613-.157-.157-.384-.245-.49-.308z"/></mask><path d="M6.363 19.689c-.617-.604-1.202-1.145-1.749-1.723a2.351 2.351 0 011.145-3.91c.836-.201 1.578.012 2.201.597.176.163.32.358.497.553a36 36 0 01.251-.276c4.089-4.772 8.19-9.544 12.258-14.328.416-.49.843-.648 1.466-.591 2.12.195 4.239.34 6.359.503.125.012.251.019.377.038.421.056.686.327.717.741l.51 6.64c.006.113.006.232.03.345.083.415-.075.717-.39.987-2.61 2.232-5.22 4.476-7.823 6.714-2.264 1.943-4.529 3.892-6.799 5.835a1.48 1.48 0 00-.113.107c.201.213.415.408.604.628.641.774.786 1.641.358 2.546-.428.912-1.189 1.358-2.189 1.358-.648 0-1.195-.27-1.654-.729-.528-.534-1.063-1.069-1.616-1.622-.095.088-.176.163-.258.245-1.906 1.905-3.805 3.81-5.71 5.715-.523.522-.894.522-1.422-.006A701.974 701.974 0 01.35 26.994c-.466-.465-.466-.868-.006-1.327 1.899-1.905 3.805-3.81 5.71-5.714.082-.082.176-.151.309-.264zm7.717.993c.056.05.138.057.2.006 4.819-4.118 9.643-8.235 14.454-12.36.088-.075.138-.251.132-.37-.126-1.817-.27-3.634-.409-5.451-.031-.465-.025-.453-.51-.49-1.785-.133-3.572-.265-5.358-.415-.232-.02-.377.031-.534.213A9269.427 9269.427 0 0111.84 13.76c-.673.786-1.34 1.566-1.994 2.333a.266.266 0 00.019.37l1.585 1.547c.05-.069.113-.182.2-.27 1.875-1.874 3.75-3.753 5.624-5.627.075-.075.144-.15.226-.22a.797.797 0 011.013.031.766.766 0 01.113 1.025c-.063.095-.151.17-.233.252-1.887 1.892-3.78 3.778-5.673 5.664-.082.082-.182.138-.296.226.58.572 1.114 1.075 1.655 1.591zm-6.837.346c-1.68 1.678-3.365 3.363-5.019 5.01a.36.36 0 000 .516l1.61 1.628a.346.346 0 00.484.007c1.692-1.654 3.403-3.314 5.089-4.96a.292.292 0 000-.422 237.613 237.613 0 01-1.78-1.78.27.27 0 00-.384 0zm-.799-5.533c-.465.026-.723.176-.842.49-.145.36-.032.66.238.938 2.497 2.508 4.994 5.016 7.485 7.531.044.044.088.094.132.132.396.34.906.34 1.214 0 .308-.333.264-.792-.113-1.17-2.541-2.54-5.076-5.079-7.623-7.613-.157-.157-.384-.245-.49-.308z" fill="#EB5757"/><path d="M6.363 19.689l3.903 4.556 4.974-4.261-4.68-4.582-4.197 4.287zm-1.749-1.723l4.359-4.123-.005-.005-4.354 4.128zm1.145-3.91L4.356 8.222l-.016.004-.016.004 1.435 5.826zm2.201.597l-4.107 4.374.013.012.012.012 4.082-4.398zm.497.553L4.005 19.23l4.46 4.935 4.45-4.943-4.458-4.015zm.251-.276l4.423 4.055.068-.075.066-.077-4.557-3.903zM20.966.602l4.57 3.887.01-.01-4.58-3.877zM22.433.01l.55-5.975h-.007L22.432.01zm6.359.503l.596-5.97-.067-.007-.068-.005L28.79.514zm.377.038l-.89 5.933.046.007.045.006.799-5.946zm.717.741l-5.983.454v.006l5.983-.46zm.51 6.64l5.99-.334-.003-.063-.005-.063-5.983.46zm.03.345l5.888-1.16-.014-.071-.016-.071-5.857 1.302zm-.39.987l3.9 4.56.006-.005.006-.005-3.911-4.55zm-7.823 6.714l3.907 4.554.004-.003-3.911-4.55zm-6.799 5.835L19.16 26.5l.078-.063.076-.064-3.901-4.56zm-.113.107l-4.242-4.244-4.119 4.117 3.992 4.24L15.3 21.92zm.604.628l4.617-3.83-.03-.038-.033-.038-4.554 3.906zm.358 2.546l-5.425-2.563-.003.008-.004.007 5.432 2.548zm-3.843.629l-4.267 4.218.013.013.012.013 4.242-4.244zm-1.616-1.622l4.242-4.244-4.098-4.096-4.237 3.953 4.093 4.387zm-.258.245l-4.242-4.243 4.242 4.243zm-7.132 5.709l4.242-4.244-.007-.006-.007-.007-4.228 4.257zM.35 26.994l4.255-4.23-.007-.007-.006-.007L.35 26.994zm-.006-1.327l4.241 4.244.007-.007-4.248-4.237zm5.71-5.714l-4.241-4.244 4.241 4.244zm8.026.729l-4.14 4.343.076.073.078.07 3.986-4.486zm.2.006l3.748 4.686.077-.061.074-.064-3.898-4.56zm14.454-12.36L24.83 3.772l3.904 4.556zm.132-.37l5.992-.316-.003-.05-.003-.049-5.986.414zm-.409-5.451l-5.986.404.002.026.002.025 5.982-.455zm-.51-.49l.467-5.982-.012-.001-.012-.001-.442 5.983zm-5.358-.415l.505-5.98h-.02l-.485 5.98zm-.534.213L17.51-2.103l-.01.011-.01.012 4.564 3.895zM11.84 13.76L7.284 9.857l4.557 3.903zm-1.994 2.333l4.498 3.97.034-.038.033-.039-4.565-3.893zm.019.37l4.19-4.294-.04-.038-.039-.037-4.111 4.37zm1.585 1.547l-4.193 4.292 4.963 4.848 4.081-5.61-4.851-3.53zm5.824-5.897L13.033 7.87l4.242 4.243zm.226-.22l-3.71-4.715-.084.065-.08.069 3.874 4.581zm1.013.031L22.51 7.45l-.006-.006-.006-.005-3.985 4.486zm.113 1.025l-4.888-3.48-.053.075-.05.076 4.99 3.33zm-.233.252l-4.242-4.244-.007.007 4.25 4.237zm-5.673 5.664l-4.235-4.25-.007.007 4.242 4.243zm-.296.226l-3.682-4.736-5.398 4.196 4.862 4.807 4.218-4.267zm-5.182 1.937l4.242 4.243-4.242-4.243zm-5.019 5.01l-4.234-4.251-.008.008 4.242 4.243zm0 .516l4.266-4.22-.012-.012-.012-.012-4.242 4.244zm1.61 1.628L-.434 32.4l.013.014.013.013 4.242-4.244zm.484.007L.125 23.897l-.024.024-.024.024 4.241 4.244zm5.089-4.96L5.28 18.871l-.034.032-.034.033 4.194 4.291zm0-.422l-4.22 4.266.047.046.047.044 4.126-4.356zm-1.78-1.78l4.264-4.22-.011-.011-.012-.012-4.241 4.244zm-1.183-5.532l3.041-5.172-1.559-.916-1.805.097.323 5.991zm-.842.49l5.563 2.247.023-.057.022-.057-5.608-2.132zm.238.938l-4.29 4.194.02.02.018.018 4.252-4.233zm7.485 7.531l-4.263 4.222.01.01.011.012 4.242-4.244zm.132.132l-3.904 4.556 3.904-4.556zm1.214 0l-4.405-4.074-.019.02-.019.021 4.443 4.033zm-7.736-8.783l-4.242 4.244.005.005.006.005 4.23-4.254zm3.625-.401c-.783-.767-1.142-1.089-1.587-1.56L.255 22.09c.65.686 1.46 1.445 1.91 1.886l8.395-8.574zm-1.592-1.564c1.916 2.02.931 5.377-1.774 6.044L4.324 8.23C-1.904 9.764-4.16 17.433.26 22.094l8.708-8.256zM7.162 19.89a3.675 3.675 0 01-1.816-.045 3.58 3.58 0 01-1.493-.817l8.214-8.748c-2.03-1.906-4.823-2.752-7.711-2.057l2.806 11.667zm-3.284-.838a3.616 3.616 0 01-.19-.19l-.034-.038c.007.01.018.021.037.044l.07.084c.057.066.143.166.244.278l8.904-8.045c.013.014.014.016-.011-.014l-.051-.06-.084-.098a9.101 9.101 0 00-.721-.757l-8.164 8.796zm9.038.17l.215-.236-8.845-8.11c-.073.08-.157.17-.288.316l8.918 8.03zm.349-.388c4.08-4.762 8.193-9.549 12.272-14.344l-9.14-7.774c-4.06 4.773-8.149 9.53-12.245 14.31l9.113 7.808zM25.546 4.48a4.372 4.372 0 01-1.72 1.202 4.306 4.306 0 01-1.937.305l1.086-11.95c-.932-.085-2.198-.053-3.559.485-1.379.545-2.357 1.41-3.029 2.204l9.16 7.754zm-3.663 1.507c2.178.2 4.398.352 6.446.51l.923-11.964c-2.19-.17-4.21-.306-6.27-.496l-1.1 11.95zm6.31.498l.188.017.029.003.022.002c.014 0 .02.001.024.002.01 0-.006 0-.034-.004a3.643 3.643 0 01-.144-.019l1.78-11.867a9.006 9.006 0 00-.669-.074c-.022-.002-.017-.002-.002 0l-1.193 11.94zm.176.014a5.164 5.164 0 01-3.005-1.534 5.21 5.21 0 01-1.462-3.217L35.868.84a6.79 6.79 0 00-1.887-4.228 6.837 6.837 0 00-4.015-2.007L28.37 6.498zm-4.466-4.745l.254 3.319.255 3.32 11.965-.919-.255-3.32-.255-3.319-11.964.919zm.5 6.512c0-.016-.001-.037.001.018.002.035.006.124.013.227.013.2.046.595.152 1.07l11.714-2.604c.08.362.1.64.106.725l.003.052-.007-.154-11.981.666zm.136 1.173a5.092 5.092 0 01.318-2.957 4.805 4.805 0 011.268-1.766l7.822 9.1a7.206 7.206 0 001.955-2.644 6.91 6.91 0 00.41-4.053L24.54 9.438zm1.598-4.733c-2.618 2.238-5.234 4.488-7.836 6.724l7.822 9.1c2.606-2.24 5.21-4.478 7.812-6.704l-7.798-9.12zm-7.832 6.72c-2.275 1.952-4.525 3.89-6.793 5.83l7.802 9.118c2.273-1.946 4.551-3.906 6.805-5.84l-7.814-9.107zm-6.64 5.703c-.205.164-.36.31-.448.393-.077.073-.15.146-.159.156l8.483 8.487.015-.015-.046.045a5.268 5.268 0 01-.35.306l-7.494-9.372zm-.734 8.906c.1.106.192.199.26.267l.092.093.065.066c.082.082.055.058 0-.005l9.11-7.811a11.79 11.79 0 00-.682-.727l-.062-.062-.035-.037-.01-.01-8.738 8.226zm.355.346c-.246-.297-.612-.88-.738-1.732a3.734 3.734 0 01.289-2.116l10.85 5.126c.659-1.394.988-3.028.733-4.76-.252-1.706-1.01-3.11-1.899-4.18l-9.235 7.662zm-.456-3.833c.223-.475.67-1.09 1.421-1.55.733-.447 1.42-.544 1.822-.544v12c1.403 0 2.97-.32 4.44-1.219 1.489-.91 2.53-2.203 3.181-3.59L10.83 22.547zm3.243-2.094c.54 0 1.086.119 1.583.345.48.217.809.486 1.005.683l-8.484 8.486c1.37 1.37 3.378 2.486 5.896 2.486v-12zm2.613 1.053c-.543-.55-1.09-1.096-1.641-1.648L6.56 28.346c.556.555 1.078 1.077 1.591 1.596l8.534-8.436zM6.71 19.715c-.057.053-.233.215-.407.389l8.484 8.487.001-.001.04-.038.03-.028a22.4 22.4 0 00.038-.035L6.71 19.715zm-.407.389l-2.859 2.86c-.951.953-1.9 1.904-2.852 2.854l8.484 8.487 2.859-2.86c.951-.953 1.9-1.904 2.852-2.854l-8.484-8.487zm-5.71 5.714c.036-.037 1.298-1.373 3.554-1.366 2.239.008 3.484 1.337 3.508 1.36L-.83 34.3c.552.552 2.247 2.144 4.934 2.154 2.704.009 4.412-1.589 4.971-2.148L.592 25.818zM7.64 25.8a693.458 693.458 0 01-3.036-3.035l-8.51 8.46a709.849 709.849 0 003.09 3.088L7.64 25.8zm-3.05-3.049c.268.268 1.401 1.486 1.409 3.556.008 2.085-1.13 3.321-1.415 3.605l-8.483-8.487c-.743.743-2.111 2.41-2.102 4.926.01 2.502 1.375 4.155 2.108 4.887l8.484-8.487zm.001 7.154c1.896-1.9 3.798-3.802 5.704-5.708L1.813 15.71a4887.92 4887.92 0 00-5.718 5.722l8.497 8.473zm5.704-5.708a4.665 4.665 0 01-.21.198l-.055.047a.677.677 0 01.005-.003l.052-.044c.045-.036.107-.087.178-.149L2.46 15.132l-.007.006a22.576 22.576 0 00-.088.073c-.08.065-.303.25-.551.498l8.483 8.487zm-.202.971c2.096 1.862 5.44 2.202 7.934.207l-7.494-9.372c2.368-1.894 5.549-1.566 7.53.195l-7.97 8.97zm8.085.082c4.814-4.114 9.644-8.237 14.46-12.365l-7.81-9.111c-4.807 4.12-9.625 8.233-14.447 12.354l7.797 9.122zm14.459-12.364a6.375 6.375 0 001.89-2.828 6.57 6.57 0 00.33-2.415l-11.984.631a5.43 5.43 0 01.744-3.054c.219-.373.598-.92 1.212-1.447l7.808 9.113zm2.214-5.342c-.128-1.844-.276-3.702-.412-5.492l-11.965.911c.14 1.845.281 3.62.405 5.41l11.972-.829zm-.408-5.44c-.003-.032-.01-.15-.02-.26a7.271 7.271 0 00-.082-.643 6.225 6.225 0 00-1.838-3.45 6.25 6.25 0 00-3.285-1.624 7.58 7.58 0 00-.572-.072l-.233-.02-.932 11.964c.29.023.02.008-.246-.037-.247-.041-1.689-.268-2.995-1.509a5.777 5.777 0 01-1.718-3.174c-.058-.332-.071-.648-.052-.367l11.973-.809zm-6.054-6.07a506.688 506.688 0 01-5.296-.41L22.084 7.58c1.823.154 3.64.288 5.422.42l.884-11.967zm-5.316-.412a6.639 6.639 0 00-2.954.42 6.599 6.599 0 00-2.61 1.856l9.088 7.837a5.406 5.406 0 01-2.13 1.491 5.365 5.365 0 01-2.363.357l.969-11.96zM17.49-2.08c-3.4 3.983-6.8 7.96-10.207 11.937l9.113 7.806C19.81 13.681 23.213 9.7 26.618 5.711L17.491-2.08zM7.283 9.858c-.674.787-1.344 1.57-2.001 2.341l9.13 7.787c.65-.763 1.315-1.54 1.986-2.323L7.283 9.858zM5.35 12.122a6.266 6.266 0 00.405 8.712l8.223-8.74a5.734 5.734 0 01.368 7.97L5.35 12.121zm.327 8.637l1.582 1.543 8.385-8.584-1.588-1.55-8.379 8.59zm10.626.781a7.266 7.266 0 00.195-.28c.03-.047.006-.01-.019.026a5.194 5.194 0 01-.585.698L7.41 13.495a6.993 6.993 0 00-.914 1.13l-.01.017c-.021.031.035-.056.113-.163l9.703 7.06zm-.408.443l2.815-2.817 2.807-2.81-8.483-8.486c-.94.938-1.878 1.878-2.815 2.817l-2.808 2.81 8.484 8.486zm5.622-5.626l.1-.102a4.156 4.156 0 01-.241.22l-7.749-9.163c-.22.187-.39.353-.482.445l-.1.101c-.022.022-.018.019-.011.012l8.483 8.487zm-.304.251a5.203 5.203 0 01-6.684-.198l7.97-8.97a6.797 6.797 0 00-8.707-.262l7.42 9.43zm-6.695-.209a5.234 5.234 0 01-.778-6.93l9.776 6.96a6.766 6.766 0 00-1.004-8.98l-7.994 8.95zm-.882-6.779c.266-.399.52-.66.6-.742.041-.043.072-.072.052-.052-.004.004-.07.066-.135.131l8.484 8.487-.01.01c.02-.02.093-.089.174-.172.16-.164.49-.51.819-1.004L13.635 9.62zm.51-.656a2408.626 2408.626 0 01-5.659 5.65l8.47 8.502c1.892-1.885 3.792-3.778 5.687-5.679l-8.498-8.473zM8.48 14.622c.17-.17.321-.298.428-.383.101-.082.179-.137.192-.146a1.512 1.512 0 01-.07.05 8.439 8.439 0 00-.286.212l7.365 9.473c-.064.05-.112.084-.12.09L16 23.91l.072-.051c.108-.078.486-.346.89-.75L8.48 14.622zm-.272 8.736c.63.623 1.226 1.184 1.733 1.667l8.28-8.686c-.575-.548-1.048-.993-1.576-1.514l-8.437 8.533zm-5.206-6.574c-1.68 1.68-3.361 3.36-5.01 5.003l8.467 8.503c1.659-1.652 3.348-3.34 5.027-5.019L3 16.784zm-5.019 5.01a6.36 6.36 0 000 9.003l8.484-8.487a5.64 5.64 0 010 7.972l-8.484-8.487zm-.024 8.98l1.608 1.625 8.536-8.434-1.612-1.63-8.532 8.438zm1.634 1.652c2.331 2.33 6.352 2.621 8.968.006L.077 23.945c2.352-2.352 5.932-2.072 7.999-.006l-8.484 8.487zm8.92.053c.841-.822 1.688-1.646 2.539-2.474l2.55-2.486-8.388-8.582c-.838.819-1.683 1.642-2.534 2.47-.85.827-1.704 1.66-2.554 2.49l8.387 8.583zm5.02-4.894a6.292 6.292 0 000-9.135l-8.251 8.713a5.708 5.708 0 010-8.291l8.251 8.713zm.094-9.044c-.589-.582-1.165-1.158-1.735-1.734l-8.529 8.442c.6.606 1.207 1.212 1.825 1.824l8.44-8.532zm-1.758-1.757a6.27 6.27 0 00-8.867 0l8.484 8.487a5.73 5.73 0 01-8.1 0l8.483-8.487zm-5.747-7.28c-.743.04-1.978.203-3.248.944a6.661 6.661 0 00-2.88 3.406l11.217 4.264a5.34 5.34 0 01-2.296 2.698c-.996.58-1.869.656-2.146.67L6.121 9.505zM.038 13.74a6.748 6.748 0 00-.244 4.386 7.036 7.036 0 001.756 2.991l8.58-8.389a4.97 4.97 0 011.206 2.116 5.253 5.253 0 01-.17 3.388L.037 13.74zm1.55 7.415c2.498 2.51 4.99 5.013 7.474 7.521l8.526-8.444c-2.497-2.521-5-5.035-7.495-7.542l-8.505 8.465zm7.495 7.543a5.107 5.107 0 01-.044-.045l-.01-.011-.004-.004.05.053a7.617 7.617 0 00.478.451l7.808-9.112c.11.095.195.175.247.225.051.05.088.088.098.099l.006.006-.007-.008-.014-.014a8.02 8.02 0 00-.124-.127l-8.484 8.487zm.47.444c2.315 1.983 6.616 2.72 9.56-.523l-8.885-8.066a5.237 5.237 0 013.869-1.712c1.376 0 2.502.537 3.264 1.189l-7.808 9.112zm9.523-.482a6.718 6.718 0 001.767-5.219c-.181-1.881-1.1-3.324-2.044-4.268l-8.483 8.487a5.01 5.01 0 01-1.417-3.065 5.282 5.282 0 011.367-4.083l8.81 8.148zm-.277-9.487c-2.534-2.533-5.079-5.083-7.633-7.624l-8.462 8.508c2.54 2.527 5.064 5.056 7.612 7.603l8.483-8.487zm-7.622-7.613a7.158 7.158 0 00-1.605-1.198c-.157-.087-.297-.157-.324-.17-.096-.049.063.028.237.131L3.403 20.668c.138.08.253.142.31.172l.127.064c.05.026-.003 0-.07-.038a4.464 4.464 0 01-.391-.244 5.068 5.068 0 01-.686-.575l8.484-8.487z" fill="#fff" mask="url(#a)"/></svg>
